<?xml version="1.0" encoding="UTF-8"?>
<svg xmlns="http://www.w3.org/2000/svg" xmlns:xlink="http://www.w3.org/1999/xlink" width="311.811" height="311.811" viewBox="0 0 311.811 311.811">
<path fill-rule="nonzero" fill="rgb(0%, 0%, 0%)" fill-opacity="1" d="M 91.089844 89.421875 L 83.789062 89.421875 L 83.789062 123.472656 L 91.089844 123.472656 L 91.089844 111.167969 L 110.535156 111.167969 L 110.535156 123.472656 L 117.835938 123.472656 L 117.835938 89.421875 L 110.535156 89.421875 L 110.535156 103.871094 L 91.089844 103.871094 Z M 91.089844 89.421875 "/>
<path fill-rule="nonzero" fill="rgb(0%, 0%, 0%)" fill-opacity="1" d="M 196.796875 89.421875 L 189.5 89.421875 L 189.5 111.167969 L 202.871094 111.167969 L 202.871094 123.472656 L 210.171875 123.472656 L 210.171875 111.167969 L 223.546875 111.167969 L 223.546875 89.421875 L 216.246094 89.421875 L 216.246094 103.871094 L 196.796875 103.871094 Z M 196.796875 89.421875 "/>
<path fill-rule="nonzero" fill="rgb(0%, 0%, 0%)" fill-opacity="1" d="M 143.945312 96.722656 L 163.394531 96.722656 L 163.394531 104.589844 L 143.945312 104.589844 Z M 163.390625 123.472656 L 170.691406 123.472656 L 170.691406 89.421875 L 136.640625 89.421875 L 136.640625 123.472656 L 143.945312 123.472656 L 143.945312 111.886719 L 163.390625 111.886719 Z M 163.390625 123.472656 "/>
<path fill-rule="nonzero" fill="rgb(0%, 0%, 0%)" fill-opacity="1" d="M 152.144531 156.523438 C 152.609375 156.523438 152.988281 156.367188 153.304688 156.035156 C 153.632812 155.714844 153.792969 155.300781 153.792969 154.832031 C 153.792969 154.375 153.632812 153.960938 153.304688 153.636719 C 152.988281 153.308594 152.609375 153.140625 152.144531 153.140625 L 149.066406 153.140625 L 149.066406 156.523438 Z M 149.066406 149.070312 L 149.066406 152.269531 L 151.84375 152.269531 C 152.28125 152.269531 152.632812 152.117188 152.933594 151.8125 C 153.242188 151.5 153.398438 151.117188 153.398438 150.675781 C 153.398438 150.238281 153.242188 149.859375 152.933594 149.542969 C 152.632812 149.230469 152.28125 149.070312 151.84375 149.070312 Z M 154.707031 154.832031 C 154.707031 155.542969 154.457031 156.140625 153.960938 156.640625 C 153.460938 157.140625 152.859375 157.386719 152.144531 157.386719 L 148.148438 157.386719 L 148.148438 148.203125 L 151.84375 148.203125 C 152.527344 148.203125 153.109375 148.457031 153.59375 148.945312 C 154.078125 149.417969 154.3125 150 154.3125 150.675781 C 154.3125 151.523438 153.960938 152.179688 153.242188 152.625 C 154.128906 153.007812 154.707031 153.832031 154.707031 154.832031 "/>
<path fill-rule="nonzero" fill="rgb(0%, 0%, 0%)" fill-opacity="1" d="M 163.242188 148.203125 L 159.921875 153.621094 L 159.921875 157.386719 L 158.996094 157.386719 L 158.996094 153.601562 L 155.699219 148.203125 L 156.730469 148.203125 L 159.476562 152.703125 L 162.203125 148.203125 Z M 163.242188 148.203125 "/>
<path fill-rule="nonzero" fill="rgb(0%, 0%, 0%)" fill-opacity="1" d="M 83.789062 209.78125 L 104.054688 209.78125 L 104.054688 208.21875 L 85.355469 208.21875 L 85.355469 196.066406 L 100.140625 196.066406 L 100.140625 194.492188 L 85.355469 194.492188 L 85.355469 182.335938 L 104.054688 182.335938 L 104.054688 180.765625 L 83.789062 180.765625 Z M 83.789062 209.78125 "/>
<path fill-rule="nonzero" fill="rgb(0%, 0%, 0%)" fill-opacity="1" d="M 161.570312 196.066406 L 176.355469 196.066406 L 176.355469 194.492188 L 161.570312 194.492188 L 161.570312 182.335938 L 180.277344 182.335938 L 180.277344 180.765625 L 160.011719 180.765625 L 160.011719 209.78125 L 178.949219 209.78125 L 180.457031 208.222656 L 161.570312 208.222656 Z M 161.570312 196.066406 "/>
<path fill-rule="nonzero" fill="rgb(0%, 0%, 0%)" fill-opacity="1" d="M 121.929688 208.21875 L 121.929688 182.335938 L 130.34375 182.335938 C 137.476562 182.335938 143.289062 188.140625 143.289062 195.277344 C 143.289062 202.421875 137.476562 208.21875 130.34375 208.21875 Z M 130.480469 180.777344 L 130.480469 180.765625 L 120.355469 180.765625 L 120.355469 209.78125 L 130.480469 209.78125 L 130.480469 209.777344 C 138.421875 209.703125 144.859375 203.230469 144.859375 195.277344 C 144.859375 187.324219 138.421875 180.84375 130.480469 180.777344 "/>
<path fill-rule="nonzero" fill="rgb(0%, 0%, 0%)" fill-opacity="1" d="M 209.625 194.148438 C 209.273438 193.769531 208.773438 193.25 208.148438 192.59375 L 195.71875 179.601562 L 195.71875 209.777344 L 197.289062 209.777344 L 197.289062 183.5 L 204.945312 191.511719 C 207.214844 193.878906 209.015625 195.765625 209.0625 195.828125 L 209.628906 196.410156 L 221.976562 183.5 L 221.976562 209.777344 L 223.546875 209.777344 L 223.546875 179.601562 Z M 209.625 194.148438 "/>
<path fill-rule="nonzero" fill="rgb(0%, 0%, 0%)" fill-opacity="1" d="M 141.820312 220.589844 C 141.820312 220.589844 141.355469 221.527344 136.429688 221.527344 C 134.007812 221.527344 131.84375 221.25 129.542969 221.25 C 124.273438 221.25 120.039062 222.125 116.859375 223.875 C 113.664062 225.621094 112.074219 227.695312 112.074219 230.117188 C 112.074219 231.257812 112.480469 232.148438 113.292969 232.789062 C 114.117188 233.414062 115.21875 233.734375 116.617188 233.734375 C 118.667969 233.734375 120.5 233.066406 122.160156 231.789062 C 123.898438 230.433594 124.675781 228.691406 124.683594 227.175781 L 124.335938 227.175781 C 124.308594 228.761719 123.429688 230.511719 121.808594 231.640625 C 120.167969 232.789062 118.449219 233.351562 116.644531 233.351562 C 115.351562 233.351562 114.339844 233.0625 113.578125 232.472656 C 112.828125 231.863281 112.453125 231.066406 112.453125 230.042969 C 112.453125 227.894531 113.742188 226.152344 116.308594 224.785156 C 118.890625 223.433594 122.226562 222.746094 126.339844 222.746094 L 129.160156 222.746094 L 134.785156 222.914062 C 133.28125 223.335938 131.980469 224.003906 130.890625 224.910156 C 129.804688 225.824219 128.863281 226.824219 128.082031 227.917969 C 127.300781 229 126.308594 230.488281 125.128906 232.378906 L 123.796875 232.378906 L 123.734375 232.75 L 124.9375 232.75 C 123.433594 235.164062 122.292969 236.90625 121.503906 237.992188 C 120.722656 239.082031 119.632812 240.160156 118.222656 241.226562 C 116.8125 242.289062 115.277344 242.824219 113.601562 242.824219 C 112.160156 242.824219 111.074219 242.527344 110.347656 241.949219 C 109.613281 241.363281 109.246094 240.644531 109.246094 239.800781 L 109.5625 239.800781 C 110.136719 239.800781 110.421875 239.433594 110.421875 238.703125 C 110.421875 238.375 110.328125 238.105469 110.136719 237.910156 C 109.945312 237.714844 109.703125 237.613281 109.40625 237.613281 C 108.960938 237.613281 108.613281 237.792969 108.359375 238.152344 C 108.105469 238.511719 107.984375 238.90625 107.984375 239.324219 C 107.984375 240.582031 108.558594 241.535156 109.703125 242.203125 C 110.863281 242.867188 112.105469 243.203125 113.445312 243.203125 C 115.511719 243.203125 117.367188 242.710938 118.988281 241.722656 C 120.605469 240.726562 121.988281 239.523438 123.140625 238.117188 C 124.300781 236.703125 125.527344 234.917969 126.847656 232.75 L 128.269531 232.609375 L 130.246094 232.378906 L 129.382812 233.90625 C 129.007812 234.585938 128.738281 235.175781 128.59375 235.675781 L 128.78125 235.761719 C 129.4375 234.71875 130.078125 233.824219 130.71875 233.097656 C 131.4375 232.277344 132.273438 231.4375 133.230469 230.589844 C 133 230.507812 132.742188 230.460938 132.46875 230.460938 C 132.0625 230.460938 131.742188 230.5625 131.515625 230.757812 C 131.285156 230.9375 131.128906 231.070312 131.066406 231.132812 C 131.003906 231.195312 130.917969 231.3125 130.816406 231.476562 C 130.601562 231.796875 130.128906 231.988281 129.382812 232.054688 L 127.003906 232.277344 L 130.152344 227.097656 C 131.558594 225.046875 133.292969 223.667969 135.328125 222.976562 C 138.015625 222.976562 139.695312 222.921875 140.375 222.8125 C 140.992188 222.683594 141.292969 222.363281 141.292969 221.863281 C 141.277344 221.585938 141.820312 220.589844 141.820312 220.589844 "/>
<path fill-rule="nonzero" fill="rgb(0%, 0%, 0%)" fill-opacity="1" d="M 131.453125 240.910156 C 131.453125 241.925781 131.824219 242.4375 132.589844 242.4375 C 133.710938 242.4375 135.164062 241.414062 136.941406 239.367188 C 138.722656 237.316406 139.609375 235.398438 139.609375 233.617188 C 139.609375 233.1875 139.484375 232.835938 139.226562 232.566406 C 138.976562 232.285156 138.640625 232.148438 138.214844 232.148438 C 136.964844 232.148438 135.53125 233.144531 133.898438 235.144531 C 132.265625 237.136719 131.453125 239.0625 131.453125 240.910156 M 141.738281 232.035156 L 143.777344 232.035156 L 140.40625 236.835938 L 138.628906 239.769531 C 138.074219 240.800781 137.804688 241.550781 137.804688 241.992188 C 137.804688 242.546875 138.089844 242.824219 138.664062 242.824219 C 139.570312 242.824219 140.859375 242.019531 142.535156 240.402344 C 144.210938 238.804688 145.828125 236.816406 147.394531 234.46875 L 147.578125 234.53125 C 146.101562 236.796875 144.515625 238.804688 142.820312 240.566406 C 141.128906 242.320312 139.625 243.203125 138.3125 243.203125 C 137.714844 243.203125 137.273438 243.0625 136.976562 242.792969 C 136.699219 242.46875 136.5625 242.089844 136.5625 241.644531 L 136.65625 240.847656 C 136.722656 240.511719 136.824219 240.191406 136.976562 239.898438 C 136.570312 240.324219 136.152344 240.726562 135.722656 241.109375 C 135.285156 241.492188 134.828125 241.851562 134.335938 242.1875 C 133.851562 242.527344 133.386719 242.78125 132.957031 242.941406 C 132.527344 243.117188 132.097656 243.203125 131.667969 243.203125 C 130.992188 243.203125 130.464844 242.980469 130.078125 242.527344 C 129.742188 242.066406 129.582031 241.496094 129.582031 240.820312 C 129.582031 239.0625 130.542969 237.117188 132.492188 234.976562 C 134.449219 232.835938 136.277344 231.773438 137.996094 231.773438 C 138.777344 231.773438 139.367188 231.953125 139.769531 232.324219 C 140.175781 232.699219 140.464844 233.21875 140.632812 233.875 Z M 141.738281 232.035156 "/>
<path fill-rule="nonzero" fill="rgb(0%, 0%, 0%)" fill-opacity="1" d="M 143.230469 242.941406 L 141.203125 242.941406 C 141.816406 241.890625 142.191406 241.246094 142.34375 241.007812 C 142.835938 240.289062 143.199219 239.730469 143.453125 239.324219 L 146.207031 235.003906 L 148.027344 232.046875 L 149.96875 232.054688 L 145.804688 237.933594 L 145.871094 237.960938 C 147.503906 235.957031 148.871094 234.421875 149.984375 233.363281 C 151.09375 232.300781 152.347656 231.773438 153.75 231.773438 C 154.273438 231.773438 154.691406 231.921875 154.988281 232.207031 C 155.320312 232.476562 155.492188 232.851562 155.492188 233.3125 C 155.492188 233.882812 155.152344 234.664062 154.476562 235.660156 L 152.890625 237.902344 L 152.949219 237.960938 C 153.96875 236.507812 155.234375 235.113281 156.730469 233.78125 C 158.238281 232.4375 159.601562 231.773438 160.824219 231.773438 C 162.035156 231.773438 162.644531 232.335938 162.644531 233.453125 C 162.644531 234.214844 161.824219 235.6875 160.195312 237.878906 C 158.5625 240.070312 157.75 241.441406 157.75 241.992188 C 157.75 242.546875 158.023438 242.824219 158.570312 242.824219 C 159.570312 242.824219 160.875 242.078125 162.492188 240.582031 C 164.117188 239.085938 165.820312 237.105469 167.597656 234.625 L 167.847656 234.753906 C 165.984375 237.359375 164.242188 239.414062 162.625 240.929688 C 161.003906 242.441406 159.601562 243.203125 158.417969 243.203125 C 157.773438 243.203125 157.296875 243.03125 156.972656 242.675781 C 156.640625 242.328125 156.480469 241.851562 156.480469 241.261719 C 156.480469 240.34375 157.296875 238.84375 158.941406 236.757812 C 160.578125 234.664062 161.40625 233.386719 161.40625 232.914062 C 161.40625 232.402344 161.121094 232.148438 160.578125 232.148438 C 159.324219 232.148438 157.628906 233.28125 155.457031 235.5625 C 153.304688 237.824219 151.597656 240.292969 150.347656 242.941406 L 148.351562 242.941406 C 148.667969 242.375 149.011719 241.777344 149.378906 241.164062 C 149.753906 240.550781 150.179688 239.855469 150.664062 239.101562 L 153.113281 235.238281 C 153.855469 234.0625 154.230469 233.3125 154.230469 232.96875 C 154.230469 232.425781 153.921875 232.148438 153.328125 232.148438 C 151.9375 232.148438 150.128906 233.464844 147.902344 236.105469 C 145.675781 238.730469 144.125 241.015625 143.230469 242.941406 "/>
<path fill-rule="nonzero" fill="rgb(0%, 0%, 0%)" fill-opacity="1" d="M 168.449219 232.054688 L 170.453125 232.054688 C 166.304688 238.109375 164.234375 241.421875 164.234375 241.992188 C 164.234375 242.546875 164.441406 242.824219 164.859375 242.824219 C 166.003906 242.824219 167.617188 241.789062 169.675781 239.742188 C 171.738281 237.691406 173.152344 235.960938 173.917969 234.5625 L 174.167969 234.722656 C 173.242188 236.347656 171.738281 238.175781 169.6875 240.183594 C 167.640625 242.203125 165.945312 243.203125 164.613281 243.203125 C 164.082031 243.203125 163.664062 243.058594 163.371094 242.757812 C 163.097656 242.414062 162.953125 242.058594 162.953125 241.683594 C 162.953125 241.109375 163.128906 240.476562 163.464844 239.800781 C 163.78125 239.082031 164.425781 238.027344 165.402344 236.625 Z M 168.449219 232.054688 "/>
<path fill-rule="nonzero" fill="rgb(0%, 0%, 0%)" fill-opacity="1" d="M 182.011719 220.871094 L 184.207031 220.871094 L 177.5 231.007812 C 174.328125 235.832031 172.441406 238.757812 171.84375 239.769531 C 171.253906 240.789062 170.960938 241.550781 170.960938 242.023438 C 170.960938 242.558594 171.1875 242.824219 171.625 242.824219 C 172.605469 242.824219 173.9375 242.023438 175.632812 240.4375 C 176.433594 239.679688 177.257812 238.804688 178.089844 237.820312 C 178.929688 236.832031 179.777344 235.742188 180.648438 234.53125 L 181 234.664062 C 180.234375 235.757812 179.441406 236.804688 178.617188 237.800781 C 177.789062 238.804688 176.691406 239.945312 175.332031 241.25 C 173.964844 242.546875 172.6875 243.203125 171.503906 243.203125 C 170.292969 243.203125 169.6875 242.660156 169.6875 241.582031 C 169.6875 240.757812 169.964844 239.851562 170.511719 238.863281 C 171.066406 237.878906 172.503906 235.636719 174.835938 232.121094 C 175.59375 230.90625 176.378906 229.703125 177.15625 228.496094 C 177.640625 227.734375 178.433594 226.484375 179.535156 224.746094 C 180.363281 223.464844 181.191406 222.171875 182.011719 220.871094 "/>
<path fill-rule="nonzero" fill="rgb(0%, 0%, 0%)" fill-opacity="1" d="M 181.824219 232.054688 L 183.917969 232.054688 C 183.367188 232.898438 182.445312 234.207031 181.140625 235.980469 C 179.839844 237.746094 178.929688 239.035156 178.410156 239.851562 C 177.890625 240.671875 177.632812 241.308594 177.632812 241.769531 C 177.632812 242.386719 177.917969 242.691406 178.488281 242.691406 C 179.609375 242.691406 181.109375 241.6875 182.96875 239.667969 C 184.835938 237.644531 186.71875 235.101562 188.617188 232.054688 L 190.558594 232.054688 L 188.527344 235.136719 L 185.859375 239.359375 L 183.757812 242.691406 C 185.707031 242.375 187.574219 241.523438 189.347656 240.136719 C 191.132812 238.75 192.773438 236.96875 194.277344 234.78125 L 194.5 234.882812 C 193.03125 237.164062 191.347656 239.019531 189.433594 240.425781 C 187.511719 241.824219 185.554688 242.71875 183.535156 243.082031 C 181.824219 245.441406 180.511719 247.167969 179.605469 248.25 C 178.695312 249.332031 177.453125 250.351562 175.902344 251.296875 C 174.339844 252.257812 172.636719 252.730469 170.769531 252.730469 C 169.398438 252.730469 168.207031 252.390625 167.195312 251.703125 C 166.191406 251.011719 165.6875 250.160156 165.6875 249.136719 C 165.6875 248.109375 166.042969 247.316406 166.734375 246.773438 C 167.433594 246.242188 168.324219 245.96875 169.402344 245.96875 C 167.921875 246.390625 167.175781 247.417969 167.175781 249.054688 C 167.175781 250.0625 167.546875 250.863281 168.261719 251.460938 C 168.988281 252.054688 169.828125 252.351562 170.804688 252.351562 C 172.585938 252.351562 174.316406 251.609375 175.992188 250.144531 C 177.667969 248.675781 179.21875 246.851562 180.636719 244.675781 L 184.535156 238.605469 L 184.472656 238.53125 C 183.308594 239.886719 182.199219 241.003906 181.164062 241.882812 C 180.125 242.765625 179.007812 243.203125 177.824219 243.203125 C 176.554688 243.203125 175.917969 242.691406 175.917969 241.683594 C 175.917969 241.085938 177.890625 237.871094 181.824219 232.054688 "/>
</svg>
